# xmcd
#
# Track frame offsets: 
#        150
#        71596
#        90528
#        124156
#
# Disc length: 2296 seconds
#
# Revision: 5
# Processed by: cddbd v1.5.2PL0 Copyright (c) Steve Scherf et al.
# Submitted via: ExactAudioCopy v0.99pb4
#
DISCID=2f08f604
DTITLE=Booker T. and The M.G.'s - McLemore Avenue
DYEAR=1970
DGENRE=Instrumental Rock
TTITLE0=Medley: Golden Slumbers | Carry That Weight | The End | Here C
TTITLE0=omes The Sun | Come Together
TTITLE1=Something
TTITLE2=Medley: Because | You Never Give Me Your Money
TTITLE3=Medley: Sun King | Mean Mr. Mustard | Polythene Pam | She Came
TTITLE3=In Through The Bathroom Window | I Want You
EXTD=© 2004\nLabel: Stax Records (Fantasy Inc.]\nSCD24 8552-2\n24 BIT 
EXTD=Remastered
EXTT0=
EXTT1=
EXTT2=
EXTT3=
PLAYORDER=
